<?xml version="1.0" encoding="UTF-8" standalone="no"?>
<svg
   viewBox="0 0 13.5 8"
   width="27"
   height="16"
   version="1.1"
   id="svg1"
   sodipodi:docname="nej.svg"
   inkscape:version="1.4.2 (f4327f4, 2025-05-13)"
   xmlns:inkscape="http://www.inkscape.org/namespaces/inkscape"
   xmlns:sodipodi="http://sodipodi.sourceforge.net/DTD/sodipodi-0.dtd"
   xmlns="http://www.w3.org/2000/svg"
   xmlns:svg="http://www.w3.org/2000/svg">
  <defs
     id="defs1" />
  <sodipodi:namedview
     id="namedview1"
     pagecolor="#ffffff"
     bordercolor="#000000"
     borderopacity="0.25"
     inkscape:showpageshadow="2"
     inkscape:pageopacity="0.0"
     inkscape:pagecheckerboard="0"
     inkscape:deskcolor="#d1d1d1"
     inkscape:zoom="7.859375"
     inkscape:cx="32"
     inkscape:cy="32"
     inkscape:window-width="1366"
     inkscape:window-height="705"
     inkscape:window-x="-8"
     inkscape:window-y="32"
     inkscape:window-maximized="1"
     inkscape:current-layer="svg1" />
  <path
     d="m 13.5,7.854035 c -0.491062,0.127551 -0.794813,0.0056 -1.067344,-0.412386 L 10.494562,4.702755 10.214437,4.32355 7.9510781,7.450699 c -0.2586094,0.376188 -0.529875,0.539936 -1.0125,0.406783 L 9.8368594,3.883587 7.1385469,0.2940668 C 7.6026094,0.2018511 7.9232344,0.2488208 8.208,0.6732718 l 2.010234,2.7729362 2.025,-2.7578542 c 0.259453,-0.3761886 0.538313,-0.5192522 1.004063,-0.3804977 l -1.04625,1.4168476 -1.4175,1.8852523 c -0.16875,0.215457 -0.145547,0.36283 0.0097,0.570962 z M 0.003375,3.817226 0.24046875,2.6261773 C 0.8859375,0.2690738 3.5310937,-0.7103954 5.3552812,0.7460964 6.4213594,1.6027549 6.6862969,2.8144871 6.6335625,4.171868 H 0.624375 C 0.5340938,6.615155 2.2557656,8.089745 4.4507813,7.337368 5.2207031,7.073217 5.6742188,6.45744 5.9011875,5.686965 6.0163594,5.300865 6.2070469,5.240537 6.5622656,5.350851 6.3808594,6.314377 5.9716406,7.119325 5.1067969,7.623065 3.8145937,8.377165 1.9701563,8.133268 0.99984375,7.085283 0.421875,6.477262 0.18309375,5.706787 0.0759375,4.882878 0.0590625,4.746709 0.0253125,4.617003 0,4.486436 Q 0.003375,4.152046 0.003375,3.817657 Z M 0.63534375,3.653478 H 6.0657187 C 6.0302812,1.8867277 4.9532344,0.631904 3.4813125,0.6211311 1.8655312,0.6082037 0.705375,1.8332942 0.63534375,3.653478 Z"
     id="path1"
     style="stroke-width:0.426371" />
</svg>
