<?xml version="1.0" encoding="UTF-8" standalone="no"?>
<svg
   width="27"
   height="16"
   viewBox="0 0 13.5 8"
   preserveAspectRatio="xMidYMid"
   fill="#8cc84b"
   version="1.1"
   id="svg1"
   sodipodi:docname="nnode.svg"
   inkscape:version="1.4.2 (f4327f4, 2025-05-13)"
   xmlns:inkscape="http://www.inkscape.org/namespaces/inkscape"
   xmlns:sodipodi="http://sodipodi.sourceforge.net/DTD/sodipodi-0.dtd"
   xmlns="http://www.w3.org/2000/svg"
   xmlns:svg="http://www.w3.org/2000/svg">
  <defs
     id="defs1" />
  <sodipodi:namedview
     id="namedview1"
     pagecolor="#ffffff"
     bordercolor="#000000"
     borderopacity="0.25"
     inkscape:showpageshadow="2"
     inkscape:pageopacity="0.0"
     inkscape:pagecheckerboard="0"
     inkscape:deskcolor="#d1d1d1"
     inkscape:zoom="7.859375"
     inkscape:cx="32"
     inkscape:cy="32"
     inkscape:window-width="1366"
     inkscape:window-height="705"
     inkscape:window-x="-8"
     inkscape:window-y="32"
     inkscape:window-maximized="1"
     inkscape:current-layer="svg1" />
  <path
     d="m 6.2344161,0.10834328 c 0.3731329,-0.11369818 0.8488774,-0.11420016 1.2126821,0 L 13.017973,1.7982547 c 0.348413,0.1054155 0.581621,0.3144897 0.578357,0.5305915 v 3.3883565 c 0.0023,0.2251375 -0.253731,0.4387295 -0.621267,0.5421371 L 7.4340385,7.9414706 A 1.2126821,0.65257236 0 0 1 6.2031662,7.9231483 L 4.5403925,7.4061102 C 4.4270534,7.3697168 4.2997218,7.340853 4.2194982,7.2818705 c 0.070895,-0.051202 0.1968276,-0.057728 0.2994392,-0.080317 0.2313424,-0.039656 0.4430953,-0.1003958 0.6557811,-0.164649 0.053638,-0.020079 0.1194026,-0.012549 0.1707084,0.00552 L 6.763332,7.4836642 c 0.1012124,0.031374 0.2038239,-0.01004 0.2905773,-0.036393 l 5.4407457,-1.652263 c 0.06716,-0.017569 0.104477,-0.05572 0.09888,-0.095376 V 2.3439056 c 0.0075,-0.045178 -0.04058,-0.08634 -0.116604,-0.1046626 L 6.9498985,0.56439097 A 0.19123064,0.10290564 0 0 0 6.733015,0.56413998 L 1.2139123,2.2425059 c -0.074627,0.018322 -0.1259324,0.058982 -0.116604,0.1041606 v 3.3557279 c -0.00653,0.039656 0.032649,0.077054 0.1002794,0.094121 l 1.474808,0.448016 c 0.2770512,0.080317 0.6170686,0.1254947 0.9221048,0.066512 A 0.69962427,0.37648406 0 0 0 4.0473906,5.9573996 l 0.0014,-3.3356488 c -0.00653,-0.049445 0.080223,-0.090356 0.169309,-0.085336 h 0.7089526 c 0.093283,-0.00125 0.1665106,0.051955 0.1539174,0.1016507 l -0.0014,3.3567319 C 5.080036,6.2929724 4.8524249,6.6172506 4.3398336,6.7635774 3.708306,6.93927 2.9275254,6.9023746 2.3034605,6.7334587 L 0.71764551,6.2615987 C 0.34451251,6.1612029 0.09404701,5.9443481 0.09637911,5.7194617 V 2.3311051 A 1.1473838,0.61743385 0 0 1 0.69432471,1.7937369 Z M 7.8407534,2.4571018 c 0.8055012,-0.025099 1.6679042,-0.016565 2.3927156,0.1970267 0.561099,0.163645 0.872198,0.5069985 0.882459,0.8428223 -0.01586,0.045178 -0.103544,0.070277 -0.183768,0.067014 -0.233208,-2.51e-4 -0.467349,0.00176 -0.70149,-7.529e-4 -0.09935,0.00201 -0.156715,-0.047186 -0.169309,-0.094372 C 9.9942006,3.3082068 9.8314176,3.1493305 9.5506356,3.0717748 9.1196666,2.9555667 8.6196686,2.9613395 8.1495209,2.9638493 7.8062386,2.9738889 7.4373034,2.9897013 7.1467262,3.0981287 6.9228464,3.1804532 6.8556825,3.349118 6.9354396,3.4801345 c 0.074627,0.096129 0.281249,0.1270006 0.4496252,0.1556134 0.9710785,0.1365382 1.9995258,0.1254947 2.9524152,0.3029442 0.394121,0.073289 0.779848,0.2158508 0.915108,0.4379764 0.176306,0.2976734 0.09935,0.6535763 -0.293842,0.8925182 C 10.639717,5.4659624 10.175167,5.570374 9.7110826,5.6311134 9.0940136,5.7051554 8.4540907,5.7069124 7.8276938,5.6737814 7.2386101,5.6376391 6.6257393,5.5543106 6.1709835,5.3384598 5.7819924,5.1567435 5.5926274,4.8736275 5.6112841,4.600551 5.6159441,4.554369 5.7013021,4.522242 5.7838581,4.526007 h 0.6996242 c 0.094216,-0.00351 0.1632457,0.040158 0.1679099,0.087846 0.043377,0.1505936 0.150186,0.3137367 0.3983194,0.401583 0.478543,0.1661549 1.0788206,0.1546094 1.626393,0.1593782 0.453823,-0.010792 0.96315,-0.014055 1.3339504,-0.1756925 0.195895,-0.092113 0.253264,-0.2459696 0.200559,-0.378492 C 10.153244,4.5086889 9.9307646,4.4567341 9.7441976,4.4198387 8.7857126,4.2566956 7.7456045,4.3159291 6.7964476,4.1312009 6.4111878,4.057912 6.0385213,3.9193659 5.8906674,3.7062759 5.684045,3.4050887 5.7787275,3.0318675 6.2138938,2.8009572 6.6336683,2.571302 7.2493377,2.4827027 7.8323579,2.4510781 Z"
     id="path1"
     style="stroke-width:0.342149" />
</svg>
