<?xml version="1.0" encoding="UTF-8" standalone="no"?>
<!-- Uploaded to: SVG Repo, www.svgrepo.com, Transformed by: SVG Repo Mixer Tools -->

<svg
   version="1.1"
   id="Layer_1"
   viewBox="0 0 216 128"
   xml:space="preserve"
   width="27"
   height="16"
   fill="#000000"
   sodipodi:docname="np.svg"
   inkscape:version="1.4.2 (f4327f4, 2025-05-13)"
   xmlns:inkscape="http://www.inkscape.org/namespaces/inkscape"
   xmlns:sodipodi="http://sodipodi.sourceforge.net/DTD/sodipodi-0.dtd"
   xmlns="http://www.w3.org/2000/svg"
   xmlns:svg="http://www.w3.org/2000/svg"><defs
   id="defs9" /><sodipodi:namedview
   id="namedview9"
   pagecolor="#ffffff"
   bordercolor="#000000"
   borderopacity="0.25"
   inkscape:showpageshadow="2"
   inkscape:pageopacity="0.0"
   inkscape:pagecheckerboard="0"
   inkscape:deskcolor="#d1d1d1"
   inkscape:zoom="7.859375"
   inkscape:cx="32"
   inkscape:cy="32"
   inkscape:window-width="1366"
   inkscape:window-height="705"
   inkscape:window-x="-8"
   inkscape:window-y="32"
   inkscape:window-maximized="1"
   inkscape:current-layer="Layer_1" />

<g
   id="SVGRepo_bgCarrier"
   stroke-width="0" />

<g
   id="SVGRepo_tracerCarrier"
   stroke-linecap="round"
   stroke-linejoin="round" />

<g
   id="SVGRepo_iconCarrier"
   transform="matrix(0.421875,0,0,0.32828594,0,-18.1932)"> <rect
   x="4"
   y="65.047997"
   style="fill:#ffffff"
   width="504"
   height="381.896"
   id="rect1" /> <g
   id="g2"> <path
   style="fill:#aac1ce"
   d="M 504,69.048 V 442.952 H 8 V 69.048 h 496 m 8,-8 H 0 v 389.904 h 512 z"
   id="path1" /> <rect
   x="3"
   y="126.848"
   style="fill:#aac1ce"
   width="505.84"
   height="8"
   id="rect2" /> </g> <circle
   style="fill:#e04f5f"
   cx="48.080002"
   cy="98.503998"
   r="12.584"
   id="circle2" /> <circle
   style="fill:#25b6d2"
   cx="89.311996"
   cy="98.503998"
   r="12.584"
   id="circle3" /> <circle
   style="fill:#32bea6"
   cx="130.56799"
   cy="98.503998"
   r="12.584"
   id="circle4" /> <g
   id="g9"> <path
   style="fill:#415e72"
   d="m 112.856,247.544 c 5.96,-0.976 12,-1.432 18.04,-1.344 6.784,-0.52 13.536,1.352 19.096,5.28 4.144,3.576 6.464,8.816 6.328,14.288 0.264,5.464 -1.768,10.784 -5.6,14.68 -5.648,4.888 -12.984,7.376 -20.44,6.912 -1.928,0.032 -3.856,-0.096 -5.76,-0.384 v 24.368 h -11.664 z m 11.704,30.128 c 1.896,0.392 3.824,0.56 5.76,0.488 8.8,0 14.2,-4.32 14.2,-11.896 0,-7.2 -4.992,-11.04 -13.152,-11.04 -2.288,-0.048 -4.568,0.144 -6.816,0.576 z"
   id="path4" /> <path
   style="fill:#415e72"
   d="m 174.008,264.616 8.448,25.04 c 0.96,2.88 1.92,6.4 2.592,9.12 h 0.28 c 0.8,-2.688 1.6,-6.144 2.504,-9.208 l 7.288,-24.944 h 12.664 l -11.704,31.848 c -6.4,17.472 -10.752,25.232 -16.312,30.032 -3.432,3.2 -7.744,5.304 -12.376,6.048 l -2.688,-9.976 c 2.488,-0.64 4.832,-1.752 6.904,-3.264 2.696,-1.912 4.888,-4.44 6.4,-7.384 0.432,-0.632 0.704,-1.36 0.8,-2.12 -0.032,-0.808 -0.264,-1.6 -0.672,-2.296 l -17.08,-42.888 z"
   id="path5" /> <path
   style="fill:#415e72"
   d="m 228.152,251.28 v 13.336 h 11.2 v 8.8 h -11.2 v 20.624 c 0,5.664 1.536,8.64 6.048,8.64 1.552,0.016 3.096,-0.176 4.6,-0.576 l 0.192,9.016 c -2.76,0.864 -5.648,1.256 -8.536,1.16 -3.776,0.184 -7.456,-1.208 -10.168,-3.832 -2.808,-3.744 -4.112,-8.4 -3.648,-13.056 v -21.944 h -6.72 v -8.8 h 6.712 v -10.584 z"
   id="path6" /> <path
   style="fill:#415e72"
   d="m 248.32,243.2 h 11.888 v 27.832 h 0.192 c 1.464,-2.264 3.472,-4.112 5.848,-5.376 2.456,-1.408 5.24,-2.136 8.064,-2.112 8,0 16.312,5.272 16.312,20.24 v 27.536 h -11.792 v -26.168 c 0,-6.816 -2.496,-11.896 -9.016,-11.896 -4.152,0 -7.832,2.672 -9.12,6.624 -0.376,1.144 -0.544,2.344 -0.488,3.544 v 27.92 H 248.32 Z"
   id="path7" /> <path
   style="fill:#415e72"
   d="m 347.656,287.552 c 0.944,12.752 -8.624,23.856 -21.376,24.8 -0.872,0.064 -1.752,0.08 -2.624,0.048 -12.472,0.48 -22.96,-9.24 -23.44,-21.712 -0.032,-0.792 -0.016,-1.584 0.032,-2.368 -0.952,-12.704 8.568,-23.776 21.272,-24.728 0.968,-0.072 1.936,-0.088 2.904,-0.032 12.36,-0.488 22.784,9.128 23.272,21.496 0.032,0.832 0.016,1.664 -0.04,2.496 z m -35.2,0.488 c 0,9.016 4.416,15.832 11.608,15.832 6.712,0 11.416,-6.616 11.416,-16 0,-7.288 -3.264,-15.64 -11.32,-15.64 -8.36,-0.032 -11.712,8.032 -11.712,15.768 z"
   id="path8" /> <path
   style="fill:#415e72"
   d="m 357.376,278.536 c 0,-5.376 -0.104,-9.88 -0.392,-13.912 h 10.4 l 0.568,7.008 h 0.288 c 3.152,-5.16 8.824,-8.24 14.872,-8.064 8.16,0 16.6,5.272 16.6,20.056 v 27.728 H 387.88 v -26.4 c 0,-6.72 -2.496,-11.808 -8.92,-11.808 -4.232,0.096 -7.928,2.872 -9.208,6.904 -0.368,1.248 -0.536,2.544 -0.488,3.84 v 27.44 h -11.888 z"
   id="path9" /> </g> </g>

</svg>
